# xmcd
#
# Track frame offsets: 
#        150
#        21297
#        32656
#        50714
#        70409
#        90572
#        109472
#        133845
#        153197
#        163036
#        177175
#        181676
#
# Disc length: 2634 seconds
#
# Revision: 0
# Processed by: cddbd v1.5.2PL0 Copyright (c) Steve Scherf et al.
# Submitted via: ExactAudioCopy v0.95a5
#
DISCID=9f0a480c
DTITLE=Jeanne Balibar - Slalom Dame
DYEAR=2006
DGENRE=Chanson
TTITLE0=Rien
TTITLE1=Cinema
TTITLE2=L'irreparable
TTITLE3=Christiana
TTITLE4=Ton diable
TTITLE5=Deux fois
TTITLE6=Neologie
TTITLE7=Alice
TTITLE8=Sex and Vegetables
TTITLE9=Houdini
TTITLE10=Wish U
TTITLE11=Panama (Rough mix)
EXTD=
EXTT0=
EXTT1=
EXTT2=
EXTT3=
EXTT4=
EXTT5=
EXTT6=
EXTT7=
EXTT8=
EXTT9=
EXTT10=
EXTT11=
PLAYORDER=
